# xmcd CD database file
#
# Track frame offsets:
#	150
#	36091
#	53987
#	85644
#	118247
#	155262
#	187145
#	222213
#	250381
#	291819
#	319570
#
# Disc length: 4415 seconds
#
# Revision: 1
# Processed by: cddbd v1.5.2PL0 Copyright (c) Steve Scherf et al.
# Submitted via: CDex 1.51
#
DISCID=9b113d0b
DTITLE=Metheny, Pat and Brad Mehldau - Quartet
DYEAR=2007
DGENRE=Jazz
TTITLE0=A Night Away
TTITLE1=The Sound of Water
TTITLE2=Fear and Trembling
TTITLE3=Don't Wait
TTITLE4=Towards the Light
TTITLE5=Long Before
TTITLE6=En La Tierra Que No Olvida
TTITLE7=Santa Cruz Slacker
TTITLE8=Secret Beach
TTITLE9=Silent Movie
TTITLE10=Marta's Theme (from "Passagio per il Paradiso")
EXTD=YEAR: 2007
EXTT0=
EXTT1=
EXTT2=
EXTT3=
EXTT4=
EXTT5=
EXTT6=
EXTT7=
EXTT8=
EXTT9=
EXTT10=
PLAYORDER=
